<svg width="22" height="22" viewBox="0 0 22 22" fill="none" xmlns="http://www.w3.org/2000/svg">
<path d="M2.75 2.75L19.25 19.25" stroke="#4F4F4F" stroke-linecap="round" stroke-linejoin="round"/>
<path d="M9.70209 9.70483C9.35808 10.0486 9.16472 10.5149 9.16455 11.0013C9.16438 11.4876 9.35741 11.9541 9.70117 12.2981C10.0449 12.6421 10.5113 12.8355 10.9976 12.8356C11.4839 12.8358 11.9504 12.6428 12.2944 12.299" stroke="#4F4F4F" stroke-linecap="round" stroke-linejoin="round"/>
<path d="M15.9107 15.9032C14.4157 16.9116 12.7803 17.4166 11.0002 17.4166C7.3335 17.4166 4.27825 15.2781 1.8335 11C3.08841 8.80456 4.50375 7.17289 6.0795 6.10406M8.58291 4.91789C9.36888 4.69305 10.1827 4.58041 11.0002 4.58331C14.6668 4.58331 17.7221 6.72189 20.1668 11C19.4537 12.2476 18.6892 13.3136 17.8724 14.1973L8.58291 4.91789Z" stroke="#4F4F4F" stroke-linecap="round" stroke-linejoin="round"/>
</svg>
